<svg xmlns="http://www.w3.org/2000/svg" width="1000" height="500" viewBox="0 0 1000 500" version="1.1"><path d="M 227.768 113.565 C 227.458 113.876, 224.345 114.796, 220.852 115.611 C 194.507 121.754, 153.235 144.131, 116.151 172.379 C 111.009 176.295, 106.059 180.031, 105.151 180.680 C 103.787 181.655, 102.107 180.989, 95.500 176.854 C 91.100 174.101, 82.325 169.258, 76 166.093 C 49.965 153.065, 33.780 149.442, 24.063 154.467 C 18.900 157.137, 17.491 160.390, 17.569 169.458 C 17.688 183.316, 25.160 201.436, 40.507 225.086 L 46.987 235.072 37.970 245.786 C 7.982 281.415, -5.901 311.871, 2.270 324.102 C 5.633 329.136, 10.148 330.997, 19 330.998 C 32.813 330.999, 55.927 323.029, 81.500 309.445 C 97.027 301.197, 99 299.898, 99 297.919 C 99 297.170, 101.813 299.289, 105.250 302.626 C 111.745 308.933, 137.612 330.923, 151.490 341.937 C 181.525 365.772, 219.602 385.259, 239.027 386.735 C 245.407 387.220, 251.878 384.456, 255.347 379.763 C 263.254 369.069, 252.318 338.983, 227.440 302.983 C 218.602 290.195, 216.642 288.222, 214.519 289.984 C 212.054 292.030, 212.695 294.062, 218.574 302.843 C 239.875 334.660, 246.218 361.182, 234.033 367.483 C 230.259 369.434, 221.453 369.420, 213.644 367.450 C 194.516 362.623, 158.562 339.458, 127.391 311.876 C 105.002 292.065, 76.009 260.178, 62.341 240.334 L 58.613 234.921 69.557 223.881 C 93.181 200.050, 120.826 177.744, 147.335 161.125 C 181.392 139.773, 207.111 129.333, 223.598 130.165 C 230.888 130.533, 231.337 130.700, 234.599 134.260 C 237.479 137.402, 237.998 138.701, 237.987 142.735 C 237.959 152.638, 229.658 170.843, 217.362 187.968 C 211.719 195.827, 211.178 197.493, 213.316 200.417 C 214.530 202.078, 214.943 201.842, 218.665 197.359 C 242.337 168.837, 257.653 138.396, 254.932 125.275 C 253.226 117.049, 246.809 113, 235.479 113 C 231.549 113, 228.079 113.254, 227.768 113.565 M 41.321 169.544 C 33.791 173.421, 33.101 184.750, 39.434 200.557 C 43.289 210.182, 52.020 226.173, 53.730 226.743 C 54.305 226.935, 60.567 221.559, 67.645 214.796 C 74.722 208.033, 84.425 198.870, 89.207 194.434 L 97.900 186.369 91.700 182.864 C 70.396 170.820, 49.548 165.308, 41.321 169.544 M 43.890 252.184 C 28.970 270.882, 20.717 285.673, 18.782 297.180 C 17.476 304.945, 19.155 309.869, 24.190 313.043 C 27.133 314.898, 28.665 315.084, 38 314.724 C 50.636 314.237, 60.732 311.097, 80 301.659 C 86.875 298.292, 93.474 295.304, 94.665 295.019 C 96.574 294.561, 95.463 293.020, 85.287 282 C 74.021 269.801, 61.485 254.861, 55.232 246.184 L 52.121 241.867 43.890 252.184" stroke="none" fill="#fc541c" fill-rule="evenodd"/><path d="M 157.538 190.250 C 156.363 197.161, 148.201 282.517, 148.647 283.238 C 149.462 284.557, 160.022 284.122, 160.477 282.750 C 160.704 282.063, 161.822 271.825, 162.960 260 C 165.874 229.741, 165.987 229.013, 168.109 226.891 C 169.856 225.144, 171.784 225, 193.500 225 C 215.449 225, 217.128 225.128, 218.946 226.946 C 220.362 228.362, 220.759 229.792, 220.403 232.196 C 219.172 240.506, 215.273 282.581, 215.671 283.250 C 216.452 284.561, 227.024 284.113, 227.490 282.750 C 228.560 279.616, 233.039 228.456, 232.471 225.866 C 231.534 221.601, 227.537 217.371, 222.698 215.522 C 219.101 214.149, 214.559 213.947, 192.954 214.201 L 167.455 214.500 168.669 203 C 170.525 185.429, 170.979 187, 164.045 187 C 158.107 187, 158.089 187.009, 157.538 190.250 M 420 187.857 C 420 188.329, 418.185 206.651, 415.968 228.572 C 413.750 250.494, 412.213 269.693, 412.552 271.239 C 412.892 272.784, 414.310 275.404, 415.704 277.061 C 420.211 282.417, 423.147 283.002, 445.372 282.978 C 463.151 282.959, 465.967 282.732, 469.500 281.033 C 474.759 278.505, 476.322 277.161, 478.870 272.982 C 482.488 267.047, 481.907 266, 475 266 C 471.667 266, 469 266.444, 469 267 C 469 267.550, 468.100 268.900, 467 270 C 465.141 271.859, 463.667 272, 446.122 272 C 430.523 272, 427.028 271.738, 425.994 270.493 C 425.068 269.378, 424.927 266.454, 425.451 259.243 C 426.714 241.854, 428.591 228.009, 429.857 226.740 C 430.725 225.871, 437.134 225.351, 451.297 225 L 471.500 224.500 471.804 219.211 L 472.107 213.922 450.944 214.211 L 429.781 214.500 430.368 209.500 C 430.690 206.750, 431.256 200.563, 431.625 195.750 L 432.295 187 426.148 187 C 422.766 187, 420 187.386, 420 187.857 M 782.571 188.250 C 781.918 190.476, 774.969 263.361, 774.985 267.816 C 775.011 275.334, 778.848 280.284, 786.387 282.522 C 789.140 283.340, 791.699 283.669, 792.074 283.254 C 792.449 282.839, 792.985 280.321, 793.266 277.659 C 793.749 273.063, 793.632 272.768, 790.968 271.839 C 789.424 271.301, 787.920 270.234, 787.626 269.469 C 787.147 268.220, 789.303 244.297, 793.505 204.245 C 794.327 196.405, 795 189.317, 795 188.495 C 795 186.539, 783.141 186.305, 782.571 188.250 M 490.989 204.250 C 490.983 204.938, 490.699 207.188, 490.358 209.250 L 489.738 213 496.273 213 L 502.807 213 503.153 207.999 L 503.500 202.999 497.250 202.999 C 492.923 203, 490.997 203.385, 490.989 204.250 M 344.086 215.047 C 338.097 216.275, 332.429 220.225, 330.161 224.751 C 327.574 229.913, 326.637 240.195, 328.374 244.352 C 330.104 248.493, 335.023 252.635, 339.781 253.956 C 341.831 254.525, 353.639 254.991, 366.095 254.994 C 386.711 255, 388.835 255.160, 390.345 256.829 C 393.546 260.365, 392.054 269.404, 387.916 271.543 C 384.436 273.343, 343.145 273.683, 339.886 271.939 C 338.796 271.356, 337.487 269.781, 336.977 268.439 C 336.150 266.264, 335.457 266, 330.584 266 C 327.578 266, 324.846 266.440, 324.514 266.977 C 323.399 268.781, 325.942 275.570, 328.734 278.245 C 334.268 283.546, 336.917 284, 362.218 283.994 C 375.673 283.991, 387.127 283.537, 389.355 282.919 C 394.184 281.578, 401.588 274.861, 402.858 270.670 C 406.414 258.936, 403.991 250.260, 396.038 246.250 C 391.788 244.107, 390.460 244, 368.011 244 C 340.629 244, 340 243.832, 340 236.508 C 340 230.211, 341.366 227.417, 345.078 226.123 C 349.078 224.728, 387.808 224.596, 391.407 225.965 C 392.850 226.513, 394.219 228.023, 394.580 229.465 C 395.172 231.820, 395.636 232, 401.108 232 L 407 232 406.996 228.750 C 406.991 224.388, 404.038 219.807, 399.353 216.895 C 395.598 214.561, 394.900 214.495, 372 214.321 C 359.075 214.222, 346.514 214.549, 344.086 215.047 M 489.554 215.250 C 489.227 216.317, 483.926 281.043, 483.981 283.298 C 483.991 283.736, 486.813 283.961, 490.250 283.798 L 496.500 283.500 498.648 258.500 C 499.830 244.750, 501.116 229.113, 501.506 223.750 L 502.216 214 496.076 214 C 492.036 214, 489.806 214.427, 489.554 215.250 M 614.500 215.207 C 609.804 216.848, 605.153 220.774, 603.127 224.808 C 601.173 228.697, 598 254.018, 598 265.716 C 598 270.871, 598.417 272.342, 600.619 274.959 C 605.990 281.342, 606.828 281.500, 635.325 281.500 L 661.150 281.500 660.575 284.375 C 660.259 285.956, 660 289.239, 660 291.670 C 660 295.030, 659.411 296.680, 657.545 298.545 L 655.091 301 632.980 301 C 619.650 301, 610.100 300.589, 608.934 299.965 C 607.810 299.363, 607 297.878, 607 296.417 C 607 293.970, 606.837 293.912, 600.750 294.202 L 594.500 294.500 594.769 298 C 595.090 302.164, 597.450 305.661, 602.055 308.794 C 605.396 311.067, 605.677 311.086, 632.623 310.794 L 659.818 310.500 663.594 307.442 C 671.165 301.311, 670.878 302.395, 674.585 265.880 C 676.449 247.521, 677.979 230.879, 677.987 228.898 C 678.005 224.004, 674.454 218.990, 669.030 216.250 C 664.772 214.099, 663.544 214.003, 641.038 214.079 C 627.412 214.125, 616.237 214.600, 614.500 215.207 M 692 214.484 C 692 216.283, 688.492 252.617, 685.997 276.667 C 684.352 292.525, 683.004 306.738, 683.003 308.250 C 683 310.940, 683.129 311, 688.912 311 L 694.824 311 695.363 307.250 C 695.659 305.188, 696.167 300.350, 696.492 296.500 C 696.818 292.650, 697.301 288.375, 697.566 287 L 698.047 284.500 720.974 284.831 C 746.592 285.201, 752.731 284.426, 758.758 280.060 C 764.883 275.624, 765.858 272.411, 768.152 249.118 C 770.125 229.086, 770.137 228.090, 768.448 224.531 C 767.480 222.491, 764.878 219.624, 762.667 218.161 L 758.646 215.500 731.323 215.500 C 716.295 215.500, 704 215.162, 704 214.750 C 704 214.338, 701.300 214, 698 214 C 694.700 214, 692 214.218, 692 214.484 M 804.585 217.750 C 803.472 224.809, 800.010 262.494, 800.005 267.602 C 799.999 273.890, 802.796 278.437, 808.500 281.413 C 812.284 283.387, 814.214 283.511, 844.301 283.700 C 868.284 283.850, 876.202 283.604, 876.511 282.700 C 876.737 282.040, 878.300 267.325, 879.985 250 C 881.670 232.675, 883.150 217.600, 883.274 216.500 C 883.472 214.751, 882.822 214.461, 878.107 214.193 C 875.141 214.024, 872.352 214.249, 871.908 214.693 C 871.245 215.357, 866 261.116, 866 266.238 C 866 267.085, 865.207 268.757, 864.238 269.954 C 862.514 272.083, 861.970 272.127, 838.497 272.037 C 819.368 271.963, 814.233 271.661, 813.116 270.545 C 811.916 269.344, 812.095 265.385, 814.371 242.822 C 815.831 228.345, 817.020 215.938, 817.013 215.250 C 817.004 214.392, 815.144 214, 811.088 214 L 805.176 214 804.585 217.750 M 908 214.936 C 896.684 217.220, 891.019 224.914, 891.006 238.018 C 890.999 244.745, 893.995 249.779, 899.689 252.607 C 903.058 254.281, 906.370 254.536, 928.269 254.814 C 952.484 255.120, 953.068 255.176, 954.428 257.314 C 956.428 260.458, 954.982 268.786, 952.020 271.185 C 950.001 272.820, 947.510 273, 926.889 273 C 905.333 273, 903.883 272.883, 902 271 C 900.900 269.900, 900 268.325, 900 267.500 C 900 266.330, 898.652 266, 893.868 266 L 887.737 266 888.267 269.953 C 888.978 275.256, 892.421 279.833, 897.401 282.095 C 901.037 283.746, 904.273 283.959, 926.071 283.978 L 950.641 284 956.064 281.250 C 963.777 277.339, 966.757 272.609, 967.563 263 C 968.134 256.198, 967.974 255.183, 965.846 252.092 C 960.629 244.514, 960.808 244.557, 931.848 244 C 901.859 243.424, 902.692 243.700, 903.681 234.641 C 904.678 225.518, 904.597 225.547, 930.493 225.197 C 954.373 224.875, 956.361 225.190, 958.023 229.561 C 958.868 231.782, 959.501 232, 965.106 232 L 971.262 232 970.657 228.273 C 969.611 221.829, 964.387 216.573, 957.423 214.957 C 952.882 213.904, 913.198 213.887, 908 214.936 M 254.030 216.089 C 249.907 217.774, 245.092 221.922, 243.351 225.288 C 241.692 228.497, 238.059 257.327, 238.020 267.602 C 237.995 273.889, 240.785 278.431, 246.500 281.413 C 250.245 283.367, 252.097 283.500, 275.528 283.500 C 300.406 283.500, 300.586 283.485, 305.519 280.945 C 308.926 279.191, 311.333 276.997, 313.197 273.945 C 315.658 269.915, 316.108 267.568, 318.019 248.786 C 320.020 229.124, 320.041 227.889, 318.423 224.479 C 317.486 222.504, 315.130 219.675, 313.189 218.194 L 309.660 215.500 283.080 215.290 C 266.977 215.162, 255.526 215.477, 254.030 216.089 M 513 216.435 C 513 217.224, 511.650 231.278, 510 247.666 C 508.350 264.053, 507 278.708, 507 280.231 C 507 282.949, 507.111 283, 513 283 C 517.131 283, 519.001 282.611, 519.004 281.750 C 519.006 281.063, 520.131 269.710, 521.504 256.523 C 522.877 243.336, 524 231.973, 524 231.273 C 524 230.573, 524.900 229.100, 526 228 C 527.886 226.114, 529.333 226, 551.477 226 C 574.746 226, 574.966 226.020, 576.340 228.250 C 577.721 230.491, 577.435 234.459, 572.700 278.750 L 572.246 283 578.623 283 C 584.303 283, 585 282.784, 585 281.028 C 585 279.944, 586.150 267.614, 587.555 253.627 C 590.457 224.742, 590.328 223.641, 583.435 218.382 L 579.658 215.500 546.329 215.251 C 517.933 215.038, 513 215.213, 513 216.435 M 615.520 226.362 C 613.591 227.772, 612.161 236.916, 610.470 258.648 C 609.461 271.612, 608.553 271.196, 636.998 270.805 C 657.969 270.517, 659.271 270.388, 660.840 268.447 C 663.171 265.566, 666.811 228.682, 664.982 226.479 C 663.246 224.387, 618.365 224.281, 615.520 226.362 M 255.578 227.914 C 253.188 230.555, 249.162 268.285, 251.030 270.536 C 252.036 271.748, 256.418 272, 276.467 272 C 298.295 272, 300.839 271.827, 302.198 270.250 C 303.230 269.054, 304.233 263.279, 305.369 252 C 307.336 232.484, 307.400 228.800, 305.800 227.200 C 304.934 226.334, 298.012 226, 280.955 226 C 258.933 226, 257.191 226.131, 255.578 227.914 M 705.189 228.039 C 703.985 229.160, 703 230.692, 703 231.444 C 703 232.780, 700.602 255.932, 699.508 265.157 C 698.573 273.042, 698.429 273, 726.071 273 C 747.959 273, 750.157 272.843, 751.837 271.163 C 753.685 269.315, 755.120 259.295, 756.714 237.103 C 757.248 229.671, 757.105 228.550, 755.468 227.353 C 754.039 226.308, 748.352 226, 730.497 226 C 708.612 226, 707.260 226.109, 705.189 228.039" stroke="none" fill="#0484cc" fill-rule="evenodd"/></svg>